<svg width="840" height="360" viewBox="0 0 840 360" fill="none" xmlns="http://www.w3.org/2000/svg">
<path d="M217.743 158.52H171.723V347.88H217.743V158.52Z" fill="#040E35"/>
<path d="M359.522 154.319C335.402 154.319 314.282 163.139 297.782 179.219V79.5586H251.762V347.879H296.222V326.039C313.082 344.039 335.342 352.499 357.902 352.499C408.482 352.499 452.582 313.799 452.582 252.479C452.582 191.159 410.042 154.379 359.462 154.379L359.522 154.319ZM351.482 312.959C320.822 312.959 296.282 288.419 296.282 253.559C296.282 218.699 321.182 193.379 352.262 193.379C383.342 193.379 406.322 215.999 406.322 253.199C406.322 290.399 382.922 313.019 351.542 313.019L351.482 312.959Z" fill="#040E35"/>
<path d="M782.038 157.383C758.278 157.383 740.998 164.643 729.538 180.363V158.523H685.078V347.883H731.098V250.503C731.098 215.643 746.818 200.283 779.398 200.283H799.738V157.383H782.098H782.038Z" fill="#040E35"/>
<path d="M641.102 182.277C632.402 173.217 621.782 166.017 609.662 160.857C597.482 155.757 583.922 153.117 569.282 153.117C555.422 153.117 542.282 155.757 530.102 161.037C517.922 166.317 507.182 173.517 498.242 182.457C489.302 191.457 482.042 202.137 476.822 214.317C471.542 226.497 468.902 239.697 468.902 253.497C468.902 267.297 471.422 280.557 476.462 292.677C481.442 304.857 488.462 315.597 497.282 324.537C506.102 333.537 516.962 340.737 529.502 345.957C542.102 351.237 556.022 353.877 570.902 353.877C613.922 353.877 640.742 334.317 656.762 316.017L620.162 288.117C612.422 297.297 594.122 309.717 571.262 309.717C556.922 309.717 545.102 306.417 536.162 299.877C527.222 293.337 521.042 284.337 517.802 273.117L517.322 271.317H668.942V253.137C668.942 239.277 666.482 226.197 661.622 214.077C656.762 202.017 649.862 191.337 641.162 182.217L641.102 182.277ZM517.682 235.497C517.682 221.397 533.882 196.677 568.862 196.677C603.842 196.677 620.102 221.337 620.102 235.437H517.682V235.497Z" fill="#040E35"/>
<path d="M87.0586 347.884H136.139V162.844L87.0586 211.864V347.884Z" fill="#040E35"/>
<path d="M5.46094 79.5586V125.939H173.041L219.421 79.5586H5.46094Z" fill="url(#paint0_linear_1478_35049)"/>
<path d="M538.983 7.61719H516.723V29.8772H538.983V7.61719Z" fill="#040E35"/>
<path d="M538.44 123.54V43.38H517.32V123.48H538.44V123.54ZM678.36 124.32V104.7C675.24 104.7 672.66 104.52 670.74 104.22C668.58 103.86 666.9 103.14 665.76 102C664.62 100.86 663.9 99.3 663.54 97.2C663.24 95.22 663.06 92.64 663.06 89.46V61.44H678.36V43.38H663.06V12.18H641.94V89.64C641.94 96.18 642.48 101.76 643.62 106.14C644.7 110.52 646.62 114.12 649.26 116.76C651.9 119.46 655.32 121.38 659.58 122.52C663.84 123.72 669.24 124.26 675.66 124.26H678.3L678.36 124.32ZM799.32 123.54V6H778.2V123.54H799.32ZM621.6 51.3C615.78 45 607.5 41.76 597.06 41.76C592.02 41.76 587.34 42.78 583.2 44.82C579.06 46.86 575.52 49.74 572.7 53.34L571.56 54.84V53.52V43.38H550.74V123.48H571.74V80.82V83.76C571.74 83.28 571.74 82.8 571.74 82.32C571.98 74.82 573.84 69.24 577.32 65.7C581.04 61.92 585.54 60 590.7 60C596.82 60 601.44 61.86 604.5 65.52C607.5 69.12 609.06 74.28 609.06 80.88V81.06V123.42H630.36V77.94C630.36 66.54 627.36 57.54 621.54 51.18L621.6 51.3ZM767.22 83.28C767.22 77.52 766.2 72.06 764.16 67.08C762.12 62.1 759.3 57.6 755.64 53.88C752.04 50.1 747.66 47.1 742.56 45C737.52 42.9 731.88 41.82 725.82 41.82C720.06 41.82 714.6 42.9 709.56 45.12C704.52 47.28 700.02 50.28 696.3 54C692.58 57.72 689.58 62.16 687.42 67.26C685.26 72.3 684.12 77.76 684.12 83.52C684.12 89.28 685.2 94.74 687.24 99.78C689.34 104.82 692.22 109.26 695.88 112.98C699.54 116.7 704.04 119.7 709.26 121.86C714.48 124.02 720.24 125.16 726.42 125.16C744.3 125.16 755.4 117.06 762.06 109.44L746.88 97.86C743.7 101.64 736.08 106.8 726.6 106.8C720.66 106.8 715.74 105.42 712.02 102.72C708.3 100.02 705.72 96.24 704.4 91.62L704.16 90.9H767.1V83.34L767.22 83.28ZM704.46 75.96C704.46 70.08 711.18 59.88 725.7 59.82C740.22 59.82 746.94 70.08 746.94 75.9H704.4L704.46 75.96Z" fill="#040E35"/>
<path d="M833.46 106.136C832.74 104.576 831.84 103.196 830.64 101.996C829.44 100.796 828.06 99.8963 826.5 99.1763C824.94 98.4563 823.2 98.1562 821.4 98.1562C819.6 98.1562 817.92 98.5163 816.3 99.1763C814.74 99.8963 813.36 100.796 812.16 101.996C810.96 103.196 810.06 104.576 809.34 106.136C808.62 107.696 808.32 109.436 808.32 111.236C808.32 113.036 808.68 114.716 809.34 116.336C810 117.956 810.96 119.276 812.16 120.476C813.36 121.676 814.74 122.576 816.3 123.296C817.86 124.016 819.6 124.316 821.4 124.316C823.2 124.316 824.88 123.956 826.5 123.296C828.06 122.576 829.44 121.676 830.64 120.476C831.84 119.276 832.74 117.896 833.46 116.336C834.18 114.776 834.48 113.036 834.48 111.236C834.48 109.436 834.12 107.756 833.46 106.136ZM831.36 115.376C830.82 116.696 830.04 117.836 829.08 118.796C828.12 119.756 826.98 120.536 825.66 121.076C824.34 121.616 822.96 121.916 821.46 121.916C819.96 121.916 818.58 121.616 817.26 121.076C815.94 120.536 814.8 119.756 813.84 118.796C812.88 117.836 812.1 116.696 811.56 115.376C811.02 114.056 810.72 112.676 810.72 111.176C810.72 109.676 811.02 108.296 811.56 106.976C812.1 105.656 812.88 104.516 813.84 103.556C814.8 102.596 815.94 101.816 817.26 101.276C818.58 100.736 819.96 100.436 821.46 100.436C822.96 100.436 824.34 100.736 825.66 101.276C826.98 101.816 828.12 102.596 829.08 103.556C830.04 104.516 830.82 105.656 831.36 106.976C831.9 108.296 832.2 109.676 832.2 111.176C832.2 112.676 831.9 114.056 831.36 115.376ZM823.92 112.256C824.94 112.136 825.78 111.776 826.44 111.116C827.1 110.456 827.46 109.496 827.46 108.176C827.46 106.736 827.04 105.596 826.2 104.816C825.36 104.036 824.04 103.676 822.24 103.676H816.48V118.616H819.24V112.496H821.22L824.94 118.616H827.82L823.98 112.316L823.92 112.256ZM822.42 110.096C822 110.096 821.58 110.096 821.16 110.096H819.18V105.896H821.16C821.58 105.896 822 105.896 822.42 105.896C822.84 105.896 823.2 106.016 823.56 106.136C823.92 106.256 824.16 106.496 824.4 106.796C824.64 107.096 824.7 107.456 824.7 107.936C824.7 108.416 824.58 108.836 824.4 109.076C824.16 109.376 823.92 109.556 823.56 109.736C823.2 109.856 822.84 109.976 822.42 109.976V110.096Z" fill="#040E35"/>
<path d="M751.618 331.739H744.598V327.539H763.198V331.739H756.118V347.879H751.618V331.739ZM781.918 327.539H788.758V347.879H784.258V332.039L779.038 342.539H775.378L770.098 332.039V347.879H765.598V327.539H772.558L777.298 337.139L781.978 327.539H781.918Z" fill="#040E35"/>
<defs>
<linearGradient id="paint0_linear_1478_35049" x1="47.4009" y1="37.6786" x2="154.321" y2="144.659" gradientUnits="userSpaceOnUse">
<stop offset="0.41" stop-color="#040E35"/>
<stop offset="0.52" stop-color="#03344C"/>
<stop offset="0.85" stop-color="#00A58E"/>
<stop offset="1" stop-color="#00D2A9"/>
</linearGradient>
</defs>
</svg>
